<svg xmlns="http://www.w3.org/2000/svg" xmlns:xlink="http://www.w3.org/1999/xlink" width="48" zoomAndPan="magnify" viewBox="0 0 36 36.000001" height="48" preserveAspectRatio="xMidYMid meet" version="1.0"><defs><clipPath id="4def203497"><path d="M 0.488281 0 L 35.511719 0 L 35.511719 35.027344 L 0.488281 35.027344 Z M 0.488281 0 " clip-rule="nonzero"/></clipPath><clipPath id="69b81ce558"><path d="M 7.785156 0 L 28.214844 0 C 30.152344 0 32.007812 0.769531 33.375 2.136719 C 34.746094 3.503906 35.511719 5.363281 35.511719 7.296875 L 35.511719 27.730469 C 35.511719 29.664062 34.746094 31.519531 33.375 32.890625 C 32.007812 34.257812 30.152344 35.027344 28.214844 35.027344 L 7.785156 35.027344 C 5.847656 35.027344 3.992188 34.257812 2.625 32.890625 C 1.253906 31.519531 0.488281 29.664062 0.488281 27.730469 L 0.488281 7.296875 C 0.488281 5.363281 1.253906 3.503906 2.625 2.136719 C 3.992188 0.769531 5.847656 0 7.785156 0 Z M 7.785156 0 " clip-rule="nonzero"/></clipPath><clipPath id="fcddc2f06a"><path d="M 6.667969 6.535156 L 29.289062 6.535156 L 29.289062 28.425781 L 6.667969 28.425781 Z M 6.667969 6.535156 " clip-rule="nonzero"/></clipPath></defs><g clip-path="url(#4def203497)"><g clip-path="url(#69b81ce558)"><path fill="#ffc876" d="M 0.488281 0 L 35.511719 0 L 35.511719 35.027344 L 0.488281 35.027344 Z M 0.488281 0 " fill-opacity="1" fill-rule="nonzero"/></g></g><path fill="#000000" d="M 17.746094 10.5625 L 17.300781 11.613281 L 18.195312 11.613281 L 17.753906 10.5625 Z M 17.746094 10.5625 " fill-opacity="1" fill-rule="nonzero"/><g clip-path="url(#fcddc2f06a)"><path fill="#000000" d="M 27.855469 18.285156 C 27.773438 18.207031 27.660156 18.164062 27.546875 18.164062 L 26.671875 18.164062 L 26.671875 12.269531 C 26.671875 11.613281 26.136719 11.078125 25.476562 11.078125 C 21.46875 11.09375 21.640625 11.046875 21.496094 11.117188 L 21.496094 10.175781 C 21.636719 10.242188 21.617188 10.195312 22.898438 10.210938 C 23.09375 10.210938 23.25 10.054688 23.25 9.859375 C 23.25 9.664062 23.09375 9.503906 22.898438 9.503906 C 21.621094 9.519531 21.632812 9.476562 21.496094 9.539062 L 21.496094 9.089844 C 21.496094 8.632812 21.125 8.261719 20.667969 8.261719 L 20.632812 8.261719 C 20.738281 8.09375 20.671875 8.085938 20.691406 6.894531 C 20.691406 6.699219 20.535156 6.542969 20.339844 6.542969 C 20.144531 6.542969 19.984375 6.699219 19.984375 6.894531 C 20.007812 8.097656 19.9375 8.09375 20.042969 8.261719 L 18.804688 8.261719 C 18.910156 8.09375 18.839844 8.085938 18.863281 6.894531 C 18.863281 6.699219 18.703125 6.542969 18.507812 6.542969 C 18.3125 6.542969 18.15625 6.699219 18.15625 6.894531 C 18.175781 8.097656 18.109375 8.09375 18.210938 8.261719 L 16.742188 8.261719 C 16.847656 8.09375 16.78125 8.085938 16.800781 6.894531 C 16.800781 6.699219 16.644531 6.542969 16.449219 6.542969 C 16.253906 6.542969 16.09375 6.699219 16.09375 6.894531 C 16.117188 8.097656 16.046875 8.09375 16.152344 8.261719 L 15.972656 8.261719 C 15.515625 8.261719 15.144531 8.632812 15.144531 9.089844 L 15.144531 9.527344 C 15.019531 9.484375 15.085938 9.515625 13.78125 9.503906 C 13.585938 9.503906 13.425781 9.664062 13.425781 9.859375 C 13.425781 10.054688 13.585938 10.210938 13.78125 10.210938 C 15.042969 10.199219 15.015625 10.234375 15.144531 10.1875 L 15.144531 11.101562 C 15.019531 11.058594 15.285156 11.089844 11.0625 11.078125 C 10.40625 11.078125 9.871094 11.613281 9.871094 12.269531 L 9.871094 18.164062 L 7.554688 18.164062 C 7.066406 18.164062 6.667969 18.558594 6.667969 19.050781 L 6.667969 22.980469 C 6.667969 23.472656 7.066406 23.867188 7.554688 23.867188 L 12.894531 23.867188 C 13.382812 23.867188 13.78125 23.472656 13.78125 22.980469 L 13.78125 19.050781 C 13.78125 18.558594 13.382812 18.164062 12.894531 18.164062 L 10.578125 18.164062 L 10.578125 12.269531 C 10.578125 12.003906 10.792969 11.785156 11.0625 11.785156 C 15.289062 11.773438 15.015625 11.808594 15.144531 11.761719 L 15.144531 12.679688 C 15.109375 12.664062 15.074219 12.65625 15.03125 12.65625 L 13.824219 12.65625 C 13.628906 12.65625 13.472656 12.8125 13.472656 13.007812 C 13.472656 13.203125 13.628906 13.363281 13.824219 13.363281 C 15.089844 13.351562 15.019531 13.382812 15.144531 13.339844 L 15.144531 13.777344 C 15.144531 14.234375 15.515625 14.605469 15.972656 14.605469 L 16.152344 14.605469 C 16.046875 14.773438 16.117188 14.800781 16.09375 15.972656 C 16.09375 16.167969 16.253906 16.324219 16.449219 16.324219 C 16.644531 16.324219 16.800781 16.167969 16.800781 15.972656 C 16.78125 14.769531 16.847656 14.773438 16.742188 14.605469 L 18.15625 14.605469 L 18.15625 22.828125 C 16.789062 23.003906 15.726562 24.15625 15.726562 25.570312 C 15.726562 27.105469 16.972656 28.351562 18.507812 28.351562 C 20.042969 28.351562 21.289062 27.105469 21.289062 25.570312 C 21.289062 24.15625 20.230469 23.003906 18.863281 22.828125 L 18.863281 14.605469 L 20.042969 14.605469 C 19.9375 14.773438 20.007812 14.800781 19.984375 15.972656 C 19.984375 16.167969 20.144531 16.324219 20.339844 16.324219 C 20.535156 16.324219 20.691406 16.167969 20.691406 15.972656 C 20.667969 14.769531 20.738281 14.773438 20.632812 14.605469 L 20.667969 14.605469 C 21.125 14.605469 21.496094 14.234375 21.496094 13.777344 L 21.496094 13.324219 C 21.636719 13.390625 21.617188 13.347656 22.898438 13.363281 C 23.09375 13.363281 23.25 13.203125 23.25 13.007812 C 23.25 12.8125 23.09375 12.65625 22.898438 12.65625 C 21.621094 12.667969 21.632812 12.625 21.496094 12.691406 L 21.496094 11.75 C 21.640625 11.820312 21.433594 11.769531 25.476562 11.785156 C 25.746094 11.785156 25.964844 12.003906 25.964844 12.269531 L 25.964844 18.164062 L 24.644531 18.164062 C 24.394531 18.164062 24.195312 18.363281 24.195312 18.609375 L 24.195312 24.542969 C 24.195312 24.792969 24.394531 24.992188 24.644531 24.992188 L 28.839844 24.992188 C 29.089844 24.992188 29.289062 24.792969 29.289062 24.542969 L 29.289062 19.84375 C 29.289062 19.722656 29.238281 19.605469 29.152344 19.519531 Z M 10.855469 22.921875 L 7.671875 22.921875 C 7.503906 22.921875 7.40625 22.746094 7.484375 22.597656 L 8.957031 19.878906 C 9.027344 19.769531 9.183594 19.769531 9.253906 19.878906 C 9.300781 19.953125 11.15625 22.765625 11.042969 22.589844 C 11.128906 22.726562 11.03125 22.921875 10.855469 22.921875 Z M 12.046875 20.578125 L 13.1875 22.675781 C 13.246094 22.785156 13.167969 22.921875 13.039062 22.921875 L 11.574219 22.921875 C 11.652344 22.746094 11.632812 22.539062 11.515625 22.371094 L 11.074219 21.703125 L 11.820312 20.578125 C 11.871094 20.488281 11.988281 20.488281 12.046875 20.578125 Z M 11.019531 18.988281 C 11.316406 18.988281 11.554688 19.226562 11.554688 19.523438 C 11.554688 19.816406 11.316406 20.054688 11.019531 20.054688 C 10.726562 20.054688 10.488281 19.816406 10.488281 19.523438 C 10.488281 19.226562 10.726562 18.988281 11.019531 18.988281 Z M 19.5625 25.769531 L 18.164062 26.832031 C 18.003906 26.957031 17.769531 26.84375 17.769531 26.636719 L 17.769531 24.503906 C 17.769531 24.300781 18.003906 24.1875 18.164062 24.308594 L 19.5625 25.375 C 19.691406 25.472656 19.691406 25.667969 19.5625 25.769531 Z M 18.691406 12.664062 C 18.640625 12.621094 18.597656 12.558594 18.5625 12.46875 L 18.398438 12.089844 L 17.097656 12.089844 L 16.933594 12.46875 C 16.828125 12.695312 16.746094 12.722656 16.617188 12.722656 C 16.390625 12.722656 16.289062 12.558594 16.382812 12.34375 L 17.398438 10.128906 C 17.546875 9.820312 17.925781 9.765625 18.101562 10.128906 L 19.117188 12.34375 C 19.148438 12.417969 19.164062 12.484375 19.152344 12.539062 C 19.121094 12.746094 18.816406 12.769531 18.691406 12.664062 Z M 19.757812 9.804688 C 19.964844 9.804688 20.101562 9.898438 20.101562 10.101562 C 20.101562 10.457031 19.65625 10.457031 19.511719 10.324219 C 19.371094 10.195312 19.355469 9.804688 19.757812 9.804688 Z M 19.757812 12.722656 C 19.582031 12.722656 19.464844 12.613281 19.464844 12.402344 L 19.464844 11.046875 C 19.464844 10.664062 19.859375 10.679688 19.980469 10.808594 C 20.035156 10.863281 20.058594 10.941406 20.058594 11.046875 L 20.058594 12.402344 C 20.058594 12.601562 19.960938 12.722656 19.757812 12.722656 Z M 25.847656 20.484375 L 27.640625 20.484375 C 27.816406 20.484375 27.957031 20.628906 27.957031 20.804688 C 27.957031 20.976562 27.816406 21.121094 27.640625 21.121094 L 25.847656 21.121094 C 25.671875 21.121094 25.527344 20.976562 25.527344 20.804688 C 25.527344 20.628906 25.671875 20.484375 25.847656 20.484375 Z M 28.019531 22.792969 L 25.464844 22.792969 C 25.289062 22.792969 25.148438 22.652344 25.148438 22.476562 C 25.148438 22.300781 25.289062 22.15625 25.464844 22.15625 L 28.019531 22.15625 C 28.195312 22.15625 28.335938 22.300781 28.335938 22.476562 C 28.335938 22.652344 28.195312 22.792969 28.019531 22.792969 Z M 28.019531 22.792969 " fill-opacity="1" fill-rule="nonzero"/></g></svg>