<svg xmlns="http://www.w3.org/2000/svg" xmlns:xlink="http://www.w3.org/1999/xlink" width="48" zoomAndPan="magnify" viewBox="0 0 36 36.000001" height="48" preserveAspectRatio="xMidYMid meet" version="1.0"><defs><clipPath id="e2f8590d4e"><path d="M 0.488281 0 L 35.511719 0 L 35.511719 35.027344 L 0.488281 35.027344 Z M 0.488281 0 " clip-rule="nonzero"/></clipPath><clipPath id="fa1440855a"><path d="M 4.863281 0 L 31.136719 0 C 33.554688 0 35.511719 1.960938 35.511719 4.378906 L 35.511719 30.648438 C 35.511719 33.066406 33.554688 35.027344 31.136719 35.027344 L 4.863281 35.027344 C 2.445312 35.027344 0.488281 33.066406 0.488281 30.648438 L 0.488281 4.378906 C 0.488281 1.960938 2.445312 0 4.863281 0 Z M 4.863281 0 " clip-rule="nonzero"/></clipPath><clipPath id="ed5f3856ea"><path d="M 15 20 L 26 20 L 26 28.453125 L 15 28.453125 Z M 15 20 " clip-rule="nonzero"/></clipPath><clipPath id="05aad847ce"><path d="M 9.074219 13 L 21 13 L 21 24 L 9.074219 24 Z M 9.074219 13 " clip-rule="nonzero"/></clipPath><clipPath id="304481f453"><path d="M 15 6.558594 L 26.585938 6.558594 L 26.585938 16 L 15 16 Z M 15 6.558594 " clip-rule="nonzero"/></clipPath></defs><g clip-path="url(#e2f8590d4e)"><g clip-path="url(#fa1440855a)"><path fill="#ac6aff" d="M 0.488281 0 L 35.511719 0 L 35.511719 35.027344 L 0.488281 35.027344 Z M 0.488281 0 " fill-opacity="1" fill-rule="nonzero"/></g></g><g clip-path="url(#ed5f3856ea)"><path fill="#000000" d="M 21.78125 22.949219 L 19.015625 22.949219 C 18.820312 22.949219 18.660156 22.789062 18.660156 22.589844 C 18.660156 22.390625 18.820312 22.230469 19.015625 22.230469 L 21.78125 22.230469 L 21.78125 21.253906 C 21.78125 21.054688 21.9375 20.894531 22.132812 20.894531 C 22.328125 20.894531 22.484375 21.054688 22.484375 21.253906 L 22.484375 21.6875 C 23.703125 21.859375 24.582031 22.585938 24.582031 23.453125 C 24.582031 24.320312 23.703125 25.046875 22.484375 25.21875 L 22.484375 25.652344 C 22.484375 25.851562 22.328125 26.011719 22.132812 26.011719 C 21.9375 26.011719 21.78125 25.851562 21.78125 25.652344 L 21.78125 24.675781 L 19.015625 24.675781 C 18.820312 24.675781 18.660156 24.515625 18.660156 24.316406 C 18.660156 24.117188 18.820312 23.957031 19.015625 23.957031 L 21.78125 23.957031 Z M 19.652344 21.632812 L 15.820312 21.632812 L 15.820312 25.953125 C 15.820312 26.3125 16.113281 26.605469 16.464844 26.605469 L 22.902344 26.605469 C 23.007812 26.605469 23.101562 26.65625 23.167969 26.734375 L 24.609375 28.453125 L 24.769531 26.933594 C 24.792969 26.75 24.945312 26.613281 25.125 26.613281 L 25.269531 26.613281 C 25.625 26.613281 25.914062 26.316406 25.914062 25.957031 L 25.914062 20.765625 C 25.914062 20.40625 25.625 20.109375 25.269531 20.109375 L 21.109375 20.109375 L 21.109375 20.140625 C 21.121094 20.964844 20.464844 21.632812 19.652344 21.632812 Z M 19.652344 21.632812 " fill-opacity="1" fill-rule="evenodd"/></g><path fill="#000000" d="M 22.492188 22.410156 L 22.492188 24.484375 C 23.28125 24.34375 23.875 23.914062 23.875 23.449219 C 23.875 22.980469 23.28125 22.554688 22.492188 22.410156 Z M 22.492188 22.410156 " fill-opacity="1" fill-rule="evenodd"/><g clip-path="url(#05aad847ce)"><path fill="#000000" d="M 16.21875 18.371094 L 16.527344 19.3125 C 16.589844 19.5 16.492188 19.703125 16.304688 19.765625 C 16.269531 19.777344 16.234375 19.789062 16.191406 19.789062 C 16.042969 19.789062 15.90625 19.691406 15.851562 19.542969 L 15.621094 18.84375 L 13.855469 18.84375 L 13.625 19.542969 C 13.5625 19.730469 13.363281 19.832031 13.179688 19.765625 C 12.992188 19.703125 12.894531 19.5 12.957031 19.3125 L 13.265625 18.378906 C 13.265625 18.371094 13.273438 18.359375 13.273438 18.355469 L 14.40625 14.949219 C 14.453125 14.804688 14.589844 14.703125 14.742188 14.703125 C 14.894531 14.703125 15.03125 14.800781 15.078125 14.949219 L 16.210938 18.355469 Z M 9.074219 14.355469 L 9.074219 20.140625 C 9.074219 20.566406 9.410156 20.914062 9.832031 20.914062 L 9.996094 20.914062 C 10.175781 20.914062 10.328125 21.054688 10.347656 21.238281 L 10.539062 23.023438 L 12.203125 21.039062 C 12.273438 20.957031 12.371094 20.910156 12.472656 20.910156 L 19.652344 20.910156 C 20.066406 20.910156 20.40625 20.566406 20.40625 20.136719 L 20.40625 14.347656 C 20.40625 14.289062 20.398438 14.222656 20.382812 14.164062 L 16.542969 14.164062 C 16.117188 14.144531 15.734375 13.929688 15.484375 13.582031 L 9.832031 13.582031 C 9.417969 13.582031 9.074219 13.929688 9.074219 14.355469 Z M 9.074219 14.355469 " fill-opacity="1" fill-rule="evenodd"/></g><path fill="#000000" d="M 14.742188 16.195312 L 14.097656 18.121094 L 15.386719 18.121094 Z M 14.742188 16.195312 " fill-opacity="1" fill-rule="evenodd"/><g clip-path="url(#304481f453)"><path fill="#000000" d="M 21.722656 11.453125 C 22.070312 11.832031 22.476562 12.15625 22.945312 12.332031 C 23.128906 12.402344 23.222656 12.605469 23.15625 12.792969 C 23.101562 12.9375 22.964844 13.027344 22.824219 13.027344 C 22.78125 13.027344 22.742188 13.023438 22.703125 13.007812 C 22.144531 12.804688 21.664062 12.433594 21.265625 12.003906 C 20.863281 12.433594 20.378906 12.804688 19.824219 13.007812 C 19.785156 13.023438 19.746094 13.027344 19.703125 13.027344 C 19.558594 13.027344 19.425781 12.9375 19.371094 12.792969 C 19.304688 12.605469 19.398438 12.394531 19.582031 12.332031 C 20.050781 12.160156 20.457031 11.832031 20.804688 11.457031 C 20.277344 10.75 19.9375 10.003906 19.785156 9.632812 L 18.761719 9.632812 C 18.566406 9.632812 18.410156 9.472656 18.410156 9.273438 C 18.410156 9.078125 18.566406 8.914062 18.761719 8.914062 L 20.011719 8.914062 C 20.015625 8.914062 20.027344 8.914062 20.03125 8.914062 L 22.496094 8.914062 C 22.5 8.914062 22.511719 8.914062 22.515625 8.914062 L 23.765625 8.914062 C 23.960938 8.914062 24.117188 9.078125 24.117188 9.273438 C 24.117188 9.472656 23.960938 9.632812 23.765625 9.632812 L 22.742188 9.632812 C 22.589844 9.996094 22.25 10.738281 21.722656 11.453125 Z M 15.933594 7.277344 L 15.933594 12.746094 C 15.933594 12.851562 15.960938 12.960938 16 13.050781 L 16.007812 13.0625 C 16.042969 13.136719 16.097656 13.207031 16.152344 13.261719 L 16.160156 13.265625 C 16.257812 13.355469 16.378906 13.421875 16.515625 13.441406 L 16.566406 13.441406 C 16.574219 13.441406 16.585938 13.441406 16.597656 13.441406 L 23.394531 13.441406 C 23.5 13.441406 23.59375 13.492188 23.660156 13.570312 L 25.203125 15.40625 L 25.378906 13.765625 C 25.398438 13.582031 25.546875 13.441406 25.730469 13.441406 L 25.890625 13.441406 C 26.273438 13.441406 26.585938 13.125 26.585938 12.734375 L 26.585938 7.269531 C 26.585938 6.875 26.273438 6.558594 25.890625 6.558594 L 16.617188 6.558594 C 16.242188 6.570312 15.933594 6.886719 15.933594 7.277344 Z M 24.59375 8.222656 L 17.925781 8.222656 C 17.730469 8.222656 17.570312 8.0625 17.570312 7.863281 C 17.570312 7.664062 17.730469 7.503906 17.925781 7.503906 L 24.59375 7.503906 C 24.789062 7.503906 24.945312 7.664062 24.945312 7.863281 C 24.949219 8.0625 24.792969 8.222656 24.59375 8.222656 Z M 24.59375 8.222656 " fill-opacity="1" fill-rule="evenodd"/></g><path fill="#000000" d="M 20.550781 9.628906 C 20.703125 9.960938 20.941406 10.417969 21.257812 10.867188 C 21.574219 10.417969 21.8125 9.953125 21.964844 9.628906 Z M 20.550781 9.628906 " fill-opacity="1" fill-rule="evenodd"/></svg>